# File created by Blade
# Date/Time:  Thu Jan 22 19:18:24 2015
#---------------------------------------------------------
:version 1.10
:name HOM
:units
  mass 1.0
  length 1.000000
  angle deg
:documentation
     Acclaim Skeleton File
:root
   axis xyz
   order TX TY TZ RX RY RZ
   position 0.000000 0.000000 0.000000
   orientation 0 0 0
:bonedata
   begin
      id 1
      name RightUpLeg_dum
      direction -1.000000 0.000000 0.000000
      length 4.478084
      axis 0.0 0.0 0.0 xyz
   end
   begin
      id 2
      name LeftUpLeg_dum
      direction 1.000000 0.000000 0.000000
      length 4.478084
      axis 0.0 0.0 0.0 xyz
   end
   begin
      id 3
      name Spine_dum
      direction 0.000000 1.000000 0.000000
      length 6.068208
      axis 0.0 0.0 0.0 xyz
   end
   begin
      id 4
      name RightUpLeg
      direction 0.000000 -1.000000 0.000000
      length 16.405774
      axis 0.0 0.0 0.0 xyz
      dof rx ry rz
   end
   begin
      id 5
      name RightLeg
      direction 0.000000 -1.000000 0.000000
      length 14.644143
      axis 0.0 0.0 0.0 xyz
      dof rx ry rz
   end
   begin
      id 6
      name RightFoot
      direction 0.000000 -0.258819 0.965926
      length 5.806150
      axis 15.0 0.0 0.0 xyz
      dof rx ry rz
   end
   begin
      id 7
      name RightToeBase
      direction 0.000000 0.000000 1.000000
      length 2.952750
      axis 0.0 0.0 0.0 xyz
      dof rx ry rz
   end
   begin
      id 8
      name LeftUpLeg
      direction 0.000000 -1.000000 0.000000
      length 16.405774
      axis 0.0 0.0 0.0 xyz
      dof rx ry rz
   end
   begin
      id 9
      name LeftLeg
      direction 0.000000 -1.000000 0.000000
      length 14.644143
      axis 0.0 0.0 0.0 xyz
      dof rx ry rz
   end
   begin
      id 10
      name LeftFoot
      direction 0.000000 -0.258819 0.965926
      length 5.806150
      axis 15.0 0.0 0.0 xyz
      dof rx ry rz
   end
   begin
      id 11
      name LeftToeBase
      direction 0.000000 0.000000 1.000000
      length 2.952750
      axis 0.0 0.0 0.0 xyz
      dof rx ry rz
   end
   begin
      id 12
      name Spine
      direction 0.000000 1.000000 0.000000
      length 0.000000
      axis 0.0 0.0 0.0 xyz
      dof rx ry rz
   end
   begin
      id 13
      name Spine_dum1
      direction 0.000000 1.000000 0.000000
      length 10.013923
      axis 0.0 0.0 0.0 xyz
   end
   begin
      id 14
      name Spine_dum2
      direction 0.000000 1.000000 0.000000
      length 10.013923
      axis 0.0 0.0 0.0 xyz
   end
   begin
      id 15
      name Spine_dum3
      direction 0.000000 1.000000 0.000000
      length 15.777476
      axis 0.0 0.0 0.0 xyz
   end
   begin
      id 16
      name RightShoulder
      direction -1.000000 0.000000 0.000000
      length 7.190220
      axis 0.0 0.0 90.0 xyz
      dof rx ry rz
   end
   begin
      id 17
      name RightArm
      direction -1.000000 0.000000 0.000000
      length 10.177469
      axis 0.0 0.0 90.0 xyz
      dof rx ry rz
   end
   begin
      id 18
      name RightForeArm
      direction -1.000000 0.000000 0.000000
      length 8.392114
      axis 0.0 0.0 90.0 xyz
      dof ry rz rx
   end
   begin
      id 19
      name RightHand
      direction -1.000000 0.000000 0.000000
      length 0.000000
      axis 0.0 0.0 90.0 xyz
      dof rx ry rz
   end
   begin
      id 20
      name RightHand_dum1
      direction -1.000000 0.000000 0.000000
      length 3.937000
      axis 0.0 0.0 90.0 xyz
   end
   begin
      id 21
      name RightHand_dum2
      direction 0.000000 0.000000 0.000000
      length 0.000000
      axis 0.0 0.0 90.0 xyz
   end
   begin
      id 22
      name RightHandThumb1
      direction 0.000000 0.000000 1.000000
      length 3.937000
      axis 0.0 0.0 90.0 xyz
      dof rx rz ry
   end
   begin
      id 23
      name LeftShoulder
      direction 1.000000 0.000000 0.000000
      length 7.190220
      axis 0.0 0.0 -90.0 xyz
      dof rx ry rz
   end
   begin
      id 24
      name LeftArm
      direction 1.000000 0.000000 0.000000
      length 10.177469
      axis 0.0 0.0 -90.0 xyz
      dof rx ry rz
   end
   begin
      id 25
      name LeftForeArm
      direction 1.000000 0.000000 0.000000
      length 8.392114
      axis 0.0 0.0 -90.0 xyz
      dof ry rz rx
   end
   begin
      id 26
      name LeftHand
      direction 1.000000 0.000000 0.000000
      length 0.000000
      axis 0.0 0.0 -90.0 xyz
      dof rx ry rz
   end
   begin
      id 27
      name LeftHand_dum1
      direction 1.000000 0.000000 0.000000
      length 3.937000
      axis 0.0 0.0 -90.0 xyz
   end
   begin
      id 28
      name LeftHand_dum2
      direction 0.000000 0.000000 0.000000
      length 0.000000
      axis 0.0 0.0 -90.0 xyz
   end
   begin
      id 29
      name LeftHandThumb1
      direction 0.000000 0.000000 1.000000
      length 3.937000
      axis 0.0 0.0 -90.0 xyz
      dof rx rz ry
   end
   begin
      id 30
      name Head
      direction 0.000000 1.000000 0.000000
      length 4.527550
      axis 0.0 0.0 0.0 xyz
      dof rx ry rz
   end
:hierarchy
   begin
      root RightUpLeg_dum LeftUpLeg_dum Spine_dum
      RightUpLeg_dum RightUpLeg
      LeftUpLeg_dum LeftUpLeg
      Spine_dum Spine
      RightUpLeg RightLeg
      RightLeg RightFoot
      RightFoot RightToeBase
      LeftUpLeg LeftLeg
      LeftLeg LeftFoot
      LeftFoot LeftToeBase
      Spine Spine_dum1 Spine_dum2 Spine_dum3
      Spine_dum1 RightShoulder
      Spine_dum2 LeftShoulder
      Spine_dum3 Head
      RightShoulder RightArm
      RightArm RightForeArm
      RightForeArm RightHand
      RightHand RightHand_dum1 RightHand_dum2
      RightHand_dum2 RightHandThumb1
      LeftShoulder LeftArm
      LeftArm LeftForeArm
      LeftForeArm LeftHand
      LeftHand LeftHand_dum1 LeftHand_dum2
      LeftHand_dum2 LeftHandThumb1
   end

# File created by Blade
# Date/Time:  Thu Jan 22 19:18:16 2015
# Frame Rate: 120.000 fps
#------------------------------------------------------
:FULLY-SPECIFIED
:DEGREES
521
root 3.399043 32.033749 -6.588478 83.856825 -37.915973 13.342410
RightUpLeg -104.196133 -23.578356 -19.345430
RightLeg 3.867802 -0.000000 -0.000000
RightFoot 4.670345 4.545243 12.615738
RightToeBase 7.721639 -0.000000 -0.000000
LeftUpLeg -83.400951 4.519921 -22.937964
LeftLeg 0.633361 -0.000000 -0.000000
LeftFoot -8.197889 10.976892 -29.343068
LeftToeBase 8.544276 -0.000000 -0.000000
Spine 44.120933 -12.374082 12.828189
RightShoulder -0.465098 21.570351 -24.273561
RightArm 61.380007 28.578453 54.226895
RightForeArm 14.071725 -0.000000 59.262991
RightHand 7.028777 -0.000000 -2.076983
RightHandThumb1 -24.326973 -0.000000 -32.862282
LeftShoulder -14.648342 -47.158127 61.210286
LeftArm 57.824691 0.293019 -36.688004
LeftForeArm 59.959988 -0.000000 53.431937
LeftHand -3.828784 0.000000 -5.265364
LeftHandThumb1 -26.253704 0.000000 33.147579
Head -49.494979 4.156166 17.503787
522
root 3.405820 32.034075 -6.588857 83.852485 -37.890566 13.353571
RightUpLeg -104.181375 -23.607997 -19.375344
RightLeg 3.883305 -0.000000 -0.000000
RightFoot 4.652264 4.494361 12.643106
RightToeBase 7.763068 -0.000000 -0.000000
LeftUpLeg -83.412618 4.493764 -22.912022
LeftLeg 0.647179 -0.000000 -0.000000
LeftFoot -8.214905 10.983454 -29.333886
LeftToeBase 8.565204 -0.000000 -0.000000
Spine 44.112164 -12.398596 12.829026
RightShoulder -0.460388 21.558283 -24.262571
RightArm 61.432079 28.576046 54.314820
RightForeArm 13.966207 -0.000000 59.262738
RightHand 7.034206 0.000000 -2.038155
RightHandThumb1 -24.326973 -0.000000 -32.862282
LeftShoulder -14.683632 -47.204599 61.282285
LeftArm 57.770097 0.343828 -36.701649
LeftForeArm 59.971511 -0.000000 53.432141
LeftHand -3.825237 -0.000000 -5.261059
LeftHandThumb1 -26.253704 0.000000 33.147579
Head -49.480516 4.196475 17.498408
523
root 3.410919 32.035141 -6.589886 83.861628 -37.858604 13.357365
RightUpLeg -104.176776 -23.629596 -19.381188
RightLeg 3.891271 -0.000000 -0.000000
RightFoot 4.645692 4.472776 12.603570
RightToeBase 7.725127 -0.000000 -0.000000
LeftUpLeg -83.439605 4.474113 -22.914631
LeftLeg 0.662300 -0.000000 -0.000000
LeftFoot -8.203447 10.970004 -29.293588
LeftToeBase 8.571876 -0.000000 -0.000000
Spine 44.095500 -12.415997 12.830729
RightShoulder -0.443140 21.569034 -24.248902
RightArm 61.439960 28.556186 54.368662
RightForeArm 13.969941 0.000000 59.281779
RightHand 7.033868 -0.000000 -2.032965
RightHandThumb1 -24.326973 -0.000000 -32.862282
LeftShoulder -14.730152 -47.276437 61.366254
LeftArm 57.709813 0.420851 -36.719403
LeftForeArm 60.007141 -0.000000 53.426895
LeftHand -3.810609 -0.000000 -5.268034
LeftHandThumb1 -26.253704 0.000000 33.147579
Head -49.464950 4.230042 17.533827
524
root 3.416790 32.035985 -6.590845 83.868209 -37.825155 13.363929
RightUpLeg -104.174598 -23.651929 -19.375445
RightLeg 3.896448 -0.000000 -0.000000
RightFoot 4.645976 4.448357 12.585948
RightToeBase 7.697993 -0.000000 -0.000000
LeftUpLeg -83.469491 4.454509 -22.938777
LeftLeg 0.681256 -0.000000 -0.000000
LeftFoot -8.182709 10.933079 -29.246535
LeftToeBase 8.553388 -0.000000 -0.000000
Spine 44.071166 -12.431041 12.837562
RightShoulder -0.421594 21.541837 -24.225024
RightArm 61.486295 28.566029 54.437970
RightForeArm 13.864797 -0.000000 59.279520
RightHand 7.033866 -0.000000 -2.052992
RightHandThumb1 -24.326973 -0.000000 -32.862282
LeftShoulder -14.753761 -47.327250 61.425437
LeftArm 57.677283 0.477147 -36.721871
LeftForeArm 59.935069 -0.000000 53.426238
LeftHand -3.826810 0.000000 -5.323565
LeftHandThumb1 -26.253704 0.000000 33.147579
Head -49.449861 4.259802 17.561768
525
root 3.423408 32.037073 -6.591287 83.870258 -37.801624 13.375762
RightUpLeg -104.187836 -23.673772 -19.346548
RightLeg 3.910192 -0.000000 -0.000000
RightFoot 4.645502 4.460277 12.565560
RightToeBase 7.652535 -0.000000 -0.000000
LeftUpLeg -83.498291 4.433015 -22.985704
LeftLeg 0.705145 -0.000000 -0.000000
LeftFoot -8.161224 10.888141 -29.204537
LeftToeBase 8.563773 -0.000000 -0.000000
Spine 44.043538 -12.434089 12.841331
RightShoulder -0.416234 21.534242 -24.206183
RightArm 61.508850 28.562064 54.505075
RightForeArm 13.770327 -0.000000 59.277204
RightHand 6.920485 -0.000000 -2.203987
RightHandThumb1 -24.326973 -0.000000 -32.862282
LeftShoulder -14.778471 -47.357301 61.503059
LeftArm 57.664488 0.508462 -36.774033
LeftForeArm 59.980073 -0.000000 53.399194
LeftHand -3.789095 -0.000000 -5.354471
LeftHandThumb1 -26.253704 0.000000 33.147579
Head -49.444244 4.298202 17.587181
